<svg width="30" height="30" viewBox="0 0 30 30" fill="none" xmlns="http://www.w3.org/2000/svg">
<path d="M3.75 15H15V16.875H3.75V15ZM1.875 10.3125H11.25V12.1875H1.875V10.3125Z" fill="white"/>
<path d="M28.0475 15.5681L25.235 9.00563C25.1628 8.83695 25.0427 8.69319 24.8895 8.59219C24.7363 8.49119 24.5569 8.4374 24.3734 8.4375H21.5609V6.5625C21.5609 6.31386 21.4622 6.0754 21.2863 5.89959C21.1105 5.72377 20.8721 5.625 20.6234 5.625H5.62342V7.5H19.6859V19.2713C19.2587 19.5193 18.8849 19.8495 18.5859 20.2427C18.287 20.636 18.0688 21.0845 17.944 21.5625H12.0528C11.8246 20.6788 11.282 19.9086 10.5265 19.3963C9.77112 18.884 8.85481 18.6649 7.94936 18.7799C7.04391 18.8949 6.21148 19.3362 5.60812 20.021C5.00476 20.7059 4.67188 21.5873 4.67188 22.5C4.67187 23.4127 5.00476 24.2941 5.60812 24.979C6.21148 25.6638 7.04391 26.1051 7.94936 26.2201C8.85481 26.3351 9.77112 26.116 10.5265 25.6037C11.282 25.0914 11.8246 24.3212 12.0528 23.4375H17.944C18.148 24.2421 18.6144 24.9557 19.2695 25.4655C19.9245 25.9752 20.7309 26.252 21.5609 26.252C22.391 26.252 23.1973 25.9752 23.8524 25.4655C24.5075 24.9557 24.9739 24.2421 25.1778 23.4375H27.1859C27.4346 23.4375 27.673 23.3387 27.8488 23.1629C28.0247 22.9871 28.1234 22.7486 28.1234 22.5V15.9375C28.1235 15.8105 28.0976 15.6848 28.0475 15.5681ZM8.43592 24.375C8.06508 24.375 7.70257 24.265 7.39423 24.059C7.08589 23.853 6.84556 23.5601 6.70365 23.2175C6.56173 22.8749 6.5246 22.4979 6.59695 22.1342C6.6693 21.7705 6.84787 21.4364 7.1101 21.1742C7.37232 20.912 7.70641 20.7334 8.07013 20.661C8.43384 20.5887 8.81084 20.6258 9.15345 20.7677C9.49606 20.9096 9.7889 21.15 9.99493 21.4583C10.201 21.7666 10.3109 22.1292 10.3109 22.5C10.3104 22.9971 10.1127 23.4738 9.7612 23.8253C9.40968 24.1768 8.93305 24.3745 8.43592 24.375ZM21.5609 10.3125H23.7547L25.7647 15H21.5609V10.3125ZM21.5609 24.375C21.1901 24.375 20.8276 24.265 20.5192 24.059C20.2109 23.853 19.9706 23.5601 19.8286 23.2175C19.6867 22.8749 19.6496 22.4979 19.722 22.1342C19.7943 21.7705 19.9729 21.4364 20.2351 21.1742C20.4973 20.912 20.8314 20.7334 21.1951 20.661C21.5588 20.5887 21.9358 20.6258 22.2785 20.7677C22.6211 20.9096 22.9139 21.15 23.1199 21.4583C23.326 21.7666 23.4359 22.1292 23.4359 22.5C23.4354 22.9971 23.2377 23.4738 22.8862 23.8253C22.5347 24.1768 22.0581 24.3745 21.5609 24.375ZM26.2484 21.5625H25.1778C24.9713 20.7595 24.5041 20.0477 23.8496 19.5387C23.195 19.0297 22.3901 18.7523 21.5609 18.75V16.875H26.2484V21.5625Z" fill="white"/>
</svg>
