<svg width="188" height="30" viewBox="0 0 188 30" fill="none" xmlns="http://www.w3.org/2000/svg">
<circle cx="15" cy="15" r="14.5" fill="white" stroke="white"/>
<path d="M16.0459 10.4922V20.5H14.7812V12.0713L12.2314 13.001V11.8594L15.8477 10.4922H16.0459Z" fill="#1A1A1A"/>
<g opacity="0.5">
<circle cx="67.5" cy="15" r="14.5" stroke="white"/>
<path d="M70.9111 19.4609V20.5H64.3965V19.5908L67.6572 15.9609C68.0583 15.5143 68.3682 15.1361 68.5869 14.8262C68.8102 14.5117 68.9652 14.2314 69.0518 13.9854C69.1429 13.7347 69.1885 13.4795 69.1885 13.2197C69.1885 12.8916 69.1201 12.5954 68.9834 12.3311C68.8512 12.0622 68.6553 11.848 68.3955 11.6885C68.1357 11.529 67.8213 11.4492 67.4521 11.4492C67.0101 11.4492 66.641 11.5358 66.3447 11.709C66.0531 11.8776 65.8343 12.1146 65.6885 12.4199C65.5426 12.7253 65.4697 13.0762 65.4697 13.4727H64.2051C64.2051 12.9121 64.3281 12.3994 64.5742 11.9346C64.8203 11.4697 65.1849 11.1006 65.668 10.8271C66.151 10.5492 66.7458 10.4102 67.4521 10.4102C68.0811 10.4102 68.6188 10.5218 69.0654 10.7451C69.512 10.9639 69.8538 11.2738 70.0908 11.6748C70.3324 12.0713 70.4531 12.5361 70.4531 13.0693C70.4531 13.361 70.403 13.6572 70.3027 13.958C70.207 14.2542 70.0726 14.5505 69.8994 14.8467C69.7308 15.1429 69.5326 15.4346 69.3047 15.7217C69.0814 16.0088 68.8421 16.2913 68.5869 16.5693L65.9209 19.4609H70.9111Z" fill="white"/>
</g>
<g opacity="0.5">
<circle cx="120" cy="15" r="14.5" stroke="white"/>
<path d="M118.735 14.9014H119.638C120.08 14.9014 120.444 14.8285 120.731 14.6826C121.023 14.5322 121.24 14.3294 121.381 14.0742C121.527 13.8145 121.6 13.5228 121.6 13.1992C121.6 12.8164 121.536 12.4951 121.408 12.2354C121.281 11.9756 121.089 11.7796 120.834 11.6475C120.579 11.5153 120.255 11.4492 119.863 11.4492C119.508 11.4492 119.193 11.5199 118.92 11.6611C118.651 11.7979 118.439 11.9938 118.284 12.249C118.134 12.5042 118.059 12.805 118.059 13.1514H116.794C116.794 12.6455 116.922 12.1852 117.177 11.7705C117.432 11.3558 117.79 11.0254 118.25 10.7793C118.715 10.5332 119.253 10.4102 119.863 10.4102C120.465 10.4102 120.991 10.5173 121.442 10.7314C121.894 10.9411 122.244 11.2555 122.495 11.6748C122.746 12.0895 122.871 12.6068 122.871 13.2266C122.871 13.4772 122.812 13.7461 122.693 14.0332C122.579 14.3158 122.399 14.5801 122.153 14.8262C121.912 15.0723 121.597 15.2751 121.21 15.4346C120.823 15.5895 120.358 15.667 119.815 15.667H118.735V14.9014ZM118.735 15.9404V15.1816H119.815C120.449 15.1816 120.973 15.2568 121.388 15.4072C121.802 15.5576 122.128 15.7581 122.365 16.0088C122.607 16.2594 122.775 16.5352 122.871 16.8359C122.971 17.1322 123.021 17.4284 123.021 17.7246C123.021 18.1895 122.942 18.6019 122.782 18.9619C122.627 19.3219 122.406 19.6273 122.119 19.8779C121.837 20.1286 121.504 20.3177 121.121 20.4453C120.738 20.5729 120.321 20.6367 119.87 20.6367C119.437 20.6367 119.029 20.5752 118.646 20.4521C118.268 20.3291 117.933 20.1514 117.642 19.9189C117.35 19.682 117.122 19.3926 116.958 19.0508C116.794 18.7044 116.712 18.3102 116.712 17.8682H117.977C117.977 18.2145 118.052 18.5176 118.202 18.7773C118.357 19.0371 118.576 19.2399 118.858 19.3857C119.146 19.527 119.483 19.5977 119.87 19.5977C120.257 19.5977 120.59 19.5316 120.868 19.3994C121.151 19.2627 121.367 19.0576 121.518 18.7842C121.673 18.5107 121.75 18.1667 121.75 17.752C121.75 17.3372 121.663 16.9977 121.49 16.7334C121.317 16.4645 121.071 16.2663 120.752 16.1387C120.438 16.0065 120.066 15.9404 119.638 15.9404H118.735Z" fill="white"/>
</g>
<g opacity="0.5">
<circle cx="172.5" cy="15" r="14.5" stroke="white"/>
<path d="M176.116 17.1504V18.1895H168.925V17.4443L173.382 10.5469H174.414L173.307 12.543L170.36 17.1504H176.116ZM174.729 10.5469V20.5H173.464V10.5469H174.729Z" fill="white"/>
</g>
</svg>
