<svg width="30" height="30" viewBox="0 0 30 30" fill="none" xmlns="http://www.w3.org/2000/svg">
<circle cx="15" cy="15" r="14.5" stroke="#1A1A1A"/>
<path d="M18.4111 19.4609V20.5H11.8965V19.5908L15.1572 15.9609C15.5583 15.5143 15.8682 15.1361 16.0869 14.8262C16.3102 14.5117 16.4652 14.2314 16.5518 13.9854C16.6429 13.7347 16.6885 13.4795 16.6885 13.2197C16.6885 12.8916 16.6201 12.5954 16.4834 12.3311C16.3512 12.0622 16.1553 11.848 15.8955 11.6885C15.6357 11.529 15.3213 11.4492 14.9521 11.4492C14.5101 11.4492 14.141 11.5358 13.8447 11.709C13.5531 11.8776 13.3343 12.1146 13.1885 12.4199C13.0426 12.7253 12.9697 13.0762 12.9697 13.4727H11.7051C11.7051 12.9121 11.8281 12.3994 12.0742 11.9346C12.3203 11.4697 12.6849 11.1006 13.168 10.8271C13.651 10.5492 14.2458 10.4102 14.9521 10.4102C15.5811 10.4102 16.1188 10.5218 16.5654 10.7451C17.012 10.9639 17.3538 11.2738 17.5908 11.6748C17.8324 12.0713 17.9531 12.5361 17.9531 13.0693C17.9531 13.361 17.903 13.6572 17.8027 13.958C17.707 14.2542 17.5726 14.5505 17.3994 14.8467C17.2308 15.1429 17.0326 15.4346 16.8047 15.7217C16.5814 16.0088 16.3421 16.2913 16.0869 16.5693L13.4209 19.4609H18.4111Z" fill="#1A1A1A"/>
</svg>
