<svg width="9" height="16" viewBox="0 0 9 16" fill="none" xmlns="http://www.w3.org/2000/svg">
<path d="M0.725125 8.45209L7.69138 15.0896C7.80761 15.2004 7.96204 15.2622 8.12263 15.2622C8.28321 15.2622 8.43764 15.2004 8.55388 15.0896L8.56138 15.0821C8.61792 15.0284 8.66294 14.9637 8.69371 14.892C8.72448 14.8204 8.74034 14.7432 8.74034 14.6652C8.74034 14.5872 8.72448 14.51 8.69371 14.4384C8.66294 14.3667 8.61792 14.3021 8.56138 14.2483L2.00138 7.99834L8.56138 1.75085C8.61792 1.69713 8.66294 1.63247 8.69371 1.56081C8.72448 1.48914 8.74034 1.41196 8.74034 1.33397C8.74034 1.25598 8.72448 1.1788 8.69371 1.10714C8.66294 1.03547 8.61792 0.970813 8.56138 0.917098L8.55388 0.909597C8.43764 0.798791 8.28321 0.736977 8.12263 0.736977C7.96204 0.736977 7.80761 0.798791 7.69138 0.909597L0.725125 7.54709C0.66386 7.60546 0.615086 7.67567 0.58176 7.75345C0.548434 7.83123 0.53125 7.91497 0.53125 7.99959C0.53125 8.08421 0.548434 8.16795 0.58176 8.24573C0.615086 8.32352 0.66386 8.39372 0.725125 8.45209Z" fill="#1A1A1A"/>
</svg>
