<svg width="155" height="35" viewBox="0 0 155 35" fill="none" xmlns="http://www.w3.org/2000/svg">
<g clip-path="url(#clip0_1_839)">
<path d="M0.343435 29.3186C1.01986 30.1635 1.83297 30.8678 2.74288 31.3971C3.55884 31.8628 4.46925 32.101 5.3917 32.09C6.07633 32.1102 6.7565 31.9649 7.38264 31.6646C8.00878 31.3643 8.56512 30.9166 9.01109 30.3542C9.98485 29.1119 10.4902 27.5182 10.4265 25.8908C10.438 25.1494 10.3402 24.4108 10.1367 23.7028C9.93709 23.0437 9.63382 22.4269 9.24025 21.8795C8.27035 20.682 7.16533 19.6211 5.95112 18.7216C5.31756 18.2256 4.8525 17.8464 4.5492 17.5765C3.16775 16.4385 1.99507 15.031 1.09158 13.4267C0.372994 12.0467 -0.00317039 10.4889 -0.000305647 8.90494C-0.0724076 6.57189 0.67679 4.29623 2.09584 2.53799C2.74384 1.7221 3.55063 1.07145 4.45837 0.632654C5.36611 0.193861 6.35232 -0.0221992 7.3463 -3.93174e-05C8.18951 0.000362063 9.02633 0.158269 9.81989 0.466725C10.6748 0.803272 11.4789 1.27517 12.2059 1.86702V5.89286C11.6409 5.00398 10.9052 4.25764 10.049 3.7049C9.26719 3.21529 8.37764 2.96331 7.47436 2.97558C6.84974 2.94734 6.2271 3.06941 5.65134 3.333C5.07558 3.59658 4.56104 3.99511 4.1448 4.49986C3.26137 5.65704 2.80731 7.12842 2.87094 8.6278C2.83792 9.9261 3.13893 11.2088 3.7404 12.3327C4.31555 13.3489 5.67703 14.7322 7.82484 16.4826C10.0446 18.2475 11.5049 19.7791 12.2059 21.0773C12.938 22.4922 13.3036 24.0947 13.264 25.7157C13.355 28.1581 12.5839 30.5465 11.1072 32.3963C10.4251 33.2415 9.5793 33.9136 8.62988 34.3649C7.68045 34.8162 6.65078 35.0355 5.61412 35.0073C4.68737 35.0126 3.76433 34.8801 2.87094 34.6134C1.98101 34.3308 1.13072 33.9187 0.343435 33.3882V29.3186Z" fill="white"/>
<path d="M24.264 3.22359H19.3371V0.444885H32.042V3.22359H27.1353V34.5843H24.264V3.22359Z" fill="white"/>
<path d="M40.0491 0.444885H49.9704V3.3184H42.9473V15.622H49.8761V18.4007H42.9473V31.7035H50.1861V34.577H40.0761L40.0491 0.444885Z" fill="white"/>
<path d="M59.7502 0.444885H69.6715V3.3184H62.6821V15.622H69.6176V18.4007H62.6821V31.7035H69.9209V34.577H59.8108L59.7502 0.444885Z" fill="white"/>
<path d="M76.9035 0.444885H79.7815L83.8862 23.9873C84.0007 24.5999 84.1355 25.4459 84.2838 26.6201C84.4321 27.7943 84.5804 29.0488 84.7287 30.4636C84.8761 28.4008 85.1281 26.3484 85.4835 24.3155L85.524 24.0383L89.4601 0.444885H92.3718L85.9823 34.577H83.4076L76.9035 0.444885Z" fill="white"/>
<path d="M104.187 0.444885H106.937L113.353 34.577H110.435L109.188 27.7141H101.983L100.884 34.6062H97.9256L104.187 0.444885ZM105.03 9.05084L102.448 24.95H108.669L106.121 9.02167C106.018 8.39932 105.924 7.65542 105.838 6.78996C105.751 5.92936 105.683 4.98125 105.623 3.95291C105.549 4.93019 105.468 5.84184 105.373 6.68785C105.279 7.53386 105.144 8.31423 105.03 9.05084Z" fill="white"/>
<path d="M121.104 0.444885H123.592L130.722 23.7831C130.824 24.104 131.019 24.9062 131.322 26.1752C131.626 27.4443 131.996 29.0415 132.448 30.9596C132.219 28.9175 132.05 26.8243 131.942 24.6947C131.835 22.5651 131.781 20.3188 131.781 18.0725V0.444885H134.261V34.577H131.781L124.818 11.5962C124.504 10.5071 124.187 9.34986 123.868 8.12461C123.551 6.89935 123.194 5.52094 122.877 3.97479C123.12 6.40585 123.299 8.68132 123.416 10.8012C123.531 12.9381 123.592 14.9219 123.592 16.767V34.577H121.104V0.444885Z" fill="white"/>
<path d="M151.374 3.27464H143.461V0.444885H155.02L145.928 31.7035H153.942V34.577H142.255L151.374 3.27464Z" fill="white"/>
</g>
<defs>
<clipPath id="clip0_1_839">
<rect width="155" height="35" fill="white"/>
</clipPath>
</defs>
</svg>
