<svg width="480" height="81" viewBox="0 0 480 81" fill="none" xmlns="http://www.w3.org/2000/svg">
<path d="M480 81H408.161V23.8956H311.736V81H0V78.75H309.48V21.6456H410.416V78.75H480V81Z" fill="#1A1A1A"/>
<path d="M359.95 23.5017C359.837 23.5017 359.713 23.4792 359.6 23.4455C358.867 23.2092 341.499 17.4493 338.127 9.81058C336.233 5.50186 337.811 3.01562 338.917 1.92438C340.845 0.0118914 344.262 -0.561855 346.879 0.596887C354.04 3.76937 358.54 10.6093 361.055 22.1405C361.145 22.5342 361.01 22.9392 360.705 23.2092C360.491 23.4005 360.22 23.5017 359.95 23.5017ZM343.924 2.23938C342.627 2.23938 341.33 2.68937 340.507 3.51062C339.289 4.72561 339.176 6.5931 340.191 8.89933C342.368 13.8493 352.732 18.5405 358.382 20.633C355.213 8.08934 349.822 4.35436 345.954 2.64437C345.322 2.36313 344.623 2.22813 343.924 2.22813V2.23938Z" fill="#1A1A1A"/>
<path d="M360.261 23.5017C359.991 23.5017 359.72 23.4005 359.506 23.2092C359.201 22.9392 359.077 22.5342 359.156 22.1405C361.671 10.6206 366.182 3.76937 373.332 0.596887C375.949 -0.561855 379.366 0.0118914 381.294 1.92438C382.4 3.02687 383.978 5.51311 382.084 9.81058C378.723 17.4493 361.355 23.2092 360.611 23.4455C360.498 23.4792 360.374 23.5017 360.261 23.5017ZM376.287 2.23938C375.588 2.23938 374.877 2.37438 374.257 2.64437C370.4 4.35436 365.009 8.07809 361.84 20.6218C366.396 18.923 377.663 14.2655 380.031 8.89933C381.046 6.58185 380.945 4.72561 379.715 3.51062C378.881 2.68937 377.584 2.23938 376.298 2.23938H376.287Z" fill="#1A1A1A"/>
<path d="M360.264 23.5016C359.768 23.5016 359.317 23.1753 359.181 22.6803C359.012 22.0841 359.362 21.4653 359.959 21.2966C360.58 21.1278 375.128 17.0554 382.38 16.3016C384.218 16.1104 386.327 16.0541 388.56 15.9866C395.124 15.8066 402.567 15.5929 405.916 12.0492C406.345 11.5992 407.055 11.5767 407.507 12.0042C407.958 12.4317 407.98 13.1404 407.552 13.5904C403.559 17.8091 395.62 18.0341 388.616 18.2254C386.428 18.2929 384.353 18.3491 382.605 18.5291C375.545 19.2604 360.715 23.4116 360.557 23.4453C360.456 23.4791 360.354 23.4903 360.253 23.4903L360.264 23.5016Z" fill="#1A1A1A"/>
<path d="M357.691 23.0064H357.657C357.274 22.9952 348.06 22.6802 338.891 19.2039C329.835 15.7727 324.298 16.2902 322.482 16.459C321.862 16.5152 321.309 16.0652 321.253 15.4465C321.196 14.8277 321.648 14.2765 322.268 14.2202C324.219 14.0402 330.151 13.489 339.692 17.1002C348.489 20.4302 357.635 20.7564 357.725 20.7564C358.345 20.7789 358.842 21.2964 358.819 21.9152C358.797 22.5227 358.3 23.0064 357.691 23.0064Z" fill="#1A1A1A"/>
</svg>
