<svg width="594" height="452" viewBox="0 0 594 452" fill="none" xmlns="http://www.w3.org/2000/svg">
<g clip-path="url(#clip0_1_960)">
<path d="M237.689 93.7344H235.522V34.3627C235.522 29.8502 234.634 25.3818 232.907 21.2127C231.18 17.0436 228.65 13.2555 225.459 10.0646C222.269 6.87375 218.481 4.34261 214.313 2.61572C210.144 0.888827 205.677 3.82341e-06 201.165 0H75.3967C66.2845 -1.73736e-05 57.5455 3.62031 51.1022 10.0645C44.6589 16.5088 41.0391 25.2491 41.0391 34.3626V360.08C41.0391 364.593 41.9277 369.061 43.6544 373.23C45.381 377.399 47.9117 381.188 51.1021 384.378C54.2925 387.569 58.0801 390.1 62.2485 391.827C66.417 393.554 70.8847 394.443 75.3966 394.443H201.165C210.277 394.443 219.016 390.823 225.459 384.378C231.902 377.934 235.522 369.194 235.522 360.08V135.996H237.689V93.7344Z" fill="#3F3D56"/>
<path d="M202.551 8.93999H186.134C186.889 10.7912 187.177 12.7997 186.973 14.7886C186.769 16.7774 186.079 18.6856 184.964 20.345C183.849 22.0044 182.343 23.364 180.579 24.3042C178.815 25.2444 176.846 25.7362 174.847 25.7363H102.797C100.798 25.7362 98.8293 25.2444 97.0651 24.3042C95.301 23.364 93.795 22.0044 92.68 20.345C91.565 18.6856 90.8751 16.7774 90.6711 14.7886C90.4671 12.7997 90.7553 10.7912 91.5103 8.93999H76.1769C72.8075 8.93998 69.471 9.60375 66.3581 10.8934C63.2451 12.183 60.4166 14.0732 58.0341 16.4561C55.6515 18.839 53.7616 21.6679 52.4721 24.7814C51.1827 27.8948 50.519 31.2317 50.519 34.6017V359.841C50.519 363.211 51.1827 366.548 52.4721 369.662C53.7616 372.775 55.6515 375.604 58.034 377.987C60.4166 380.37 63.2451 382.26 66.358 383.55C69.471 384.839 72.8074 385.503 76.1769 385.503H202.551C205.92 385.503 209.257 384.839 212.369 383.55C215.482 382.26 218.311 380.37 220.693 377.987C223.076 375.604 224.966 372.775 226.255 369.662C227.545 366.548 228.208 363.211 228.208 359.841V34.6017C228.208 31.2317 227.545 27.8948 226.255 24.7814C224.966 21.6679 223.076 18.839 220.693 16.4561C218.311 14.0732 215.482 12.183 212.369 10.8934C209.257 9.60375 205.92 8.93998 202.551 8.93999Z" fill="white"/>
<path d="M278 394.499H0.727749C0.534738 394.499 0.349632 394.423 0.213152 394.286C0.0766728 394.15 0 393.964 0 393.771C0 393.578 0.0766728 393.393 0.213152 393.257C0.349632 393.12 0.534738 393.043 0.727749 393.043H278C278.193 393.043 278.378 393.12 278.515 393.257C278.651 393.393 278.728 393.578 278.728 393.771C278.728 393.964 278.651 394.15 278.515 394.286C278.378 394.423 278.193 394.499 278 394.499Z" fill="#CBCBCB"/>
<path d="M139.364 251.606C173.305 251.606 200.819 224.087 200.819 190.141C200.819 156.195 173.305 128.676 139.364 128.676C105.423 128.676 77.9082 156.195 77.9082 190.141C77.9082 224.087 105.423 251.606 139.364 251.606Z" fill="#6C63FF"/>
<path d="M133.274 213.588C131.891 213.59 130.545 213.143 129.439 212.314L129.371 212.262L114.928 201.212C114.259 200.699 113.698 200.06 113.276 199.33C112.854 198.6 112.58 197.794 112.47 196.958C112.359 196.123 112.415 195.273 112.633 194.459C112.85 193.644 113.226 192.881 113.739 192.212C114.252 191.543 114.892 190.982 115.621 190.56C116.351 190.138 117.157 189.864 117.992 189.754C118.828 189.643 119.677 189.699 120.491 189.916C121.306 190.134 122.069 190.51 122.738 191.023L132.093 198.198L154.199 169.354C154.712 168.685 155.351 168.124 156.08 167.702C156.81 167.281 157.615 167.007 158.451 166.896C159.286 166.786 160.135 166.841 160.948 167.059C161.762 167.277 162.525 167.653 163.194 168.165L163.196 168.167L163.059 168.357L163.2 168.167C164.549 169.204 165.431 170.733 165.654 172.42C165.876 174.107 165.42 175.814 164.386 177.165L138.385 211.077C137.783 211.859 137.01 212.491 136.124 212.925C135.239 213.359 134.266 213.583 133.28 213.581L133.274 213.588Z" fill="white"/>
<path d="M505.236 400.54C505.984 399.331 506.864 398.21 507.861 397.196C508.271 396.77 508.705 396.368 509.152 395.977C511.869 393.559 515.181 391.907 518.748 391.193C522.315 390.479 526.008 390.728 529.447 391.914C532.886 393.101 535.946 395.182 538.315 397.944C540.683 400.706 542.272 404.048 542.921 407.628C545.922 396.527 538.109 385.592 530.253 377.193C522.394 368.796 513.411 359.585 513.456 348.079C513.478 341.677 516.609 335.966 521.337 331.732C521.483 331.603 521.629 331.475 521.778 331.352C527.492 326.453 534.843 323.89 542.364 324.176C556.336 324.925 568.536 334.317 577.008 345.457C590.646 363.382 596.621 388.544 587.074 408.949C578.677 426.895 560.767 437.552 542.489 446.12C539.936 447.316 537.389 448.477 534.847 449.601C534.83 449.606 534.812 449.618 534.795 449.622C534.672 449.676 534.55 449.73 534.435 449.785C533.911 450.017 533.386 450.248 532.866 450.477L533.107 450.634L533.858 451.121C533.598 450.963 533.34 450.81 533.079 450.652C533.002 450.605 532.92 450.56 532.843 450.512C523.865 445.124 514.763 439.425 508.561 431.014C502.129 422.281 499.543 409.773 505.236 400.54Z" fill="#F1F1F1"/>
<path d="M565.132 380.26C567.12 384.783 568.438 389.571 569.044 394.475C569.521 398.847 569.342 403.266 568.512 407.585C566.729 416.461 562.841 424.779 557.176 431.839C552.901 437.199 547.966 441.997 542.488 446.12C539.936 447.316 537.389 448.477 534.847 449.601C534.83 449.606 534.811 449.618 534.795 449.622C534.672 449.676 534.55 449.73 534.435 449.785C533.91 450.017 533.386 450.248 532.865 450.477L533.106 450.634L533.858 451.121C533.597 450.963 533.34 450.81 533.079 450.652C533.002 450.605 532.92 450.56 532.842 450.512C534.818 443.6 535.108 436.315 533.689 429.268C532.27 422.221 529.183 415.617 524.686 410.009C520.165 404.472 514.4 400.081 507.86 397.196C508.271 396.77 508.704 396.368 509.151 395.977C511.67 397.134 514.082 398.512 516.358 400.094C524.5 405.722 530.614 413.822 533.794 423.196C536.634 431.699 536.988 440.837 534.817 449.536C535.267 449.241 535.72 448.938 536.159 448.638C544.523 442.997 552.23 436.223 558.036 427.915C563.044 420.894 566.248 412.749 567.367 404.198C568.48 394.857 566.143 385.671 561.973 377.336C557.369 368.419 551.566 360.174 544.728 352.829C537.86 345.282 530.094 338.603 521.603 332.943C521.412 332.814 521.278 332.616 521.228 332.39C521.178 332.165 521.217 331.929 521.337 331.732C521.428 331.552 521.586 331.415 521.777 331.352C521.874 331.327 521.976 331.324 522.074 331.344C522.172 331.364 522.265 331.406 522.345 331.466C523.393 332.166 524.432 332.872 525.459 333.598C534.009 339.654 541.774 346.748 548.576 354.718C555.148 362.4 561.129 370.936 565.132 380.26Z" fill="white"/>
<path d="M382.099 28.5397C389.307 28.5397 395.15 22.6955 395.15 15.4863C395.15 8.27703 389.307 2.4328 382.099 2.4328C374.891 2.4328 369.047 8.27703 369.047 15.4863C369.047 22.6955 374.891 28.5397 382.099 28.5397Z" fill="#F1F1F1"/>
<path d="M544.387 203.226C548.782 203.226 552.344 199.663 552.344 195.267C552.344 190.872 548.782 187.309 544.387 187.309C539.992 187.309 536.43 190.872 536.43 195.267C536.43 199.663 539.992 203.226 544.387 203.226Z" fill="#F1F1F1"/>
<path d="M311.507 225.061C315.902 225.061 319.464 221.498 319.464 217.103C319.464 212.708 315.902 209.145 311.507 209.145C307.112 209.145 303.55 212.708 303.55 217.103C303.55 221.498 307.112 225.061 311.507 225.061Z" fill="#F1F1F1"/>
<path d="M316 452H593.272C593.465 452 593.65 451.923 593.787 451.787C593.923 451.65 594 451.465 594 451.272C594 451.079 593.923 450.894 593.787 450.757C593.65 450.621 593.465 450.544 593.272 450.544H316C315.807 450.544 315.622 450.621 315.485 450.757C315.349 450.894 315.272 451.079 315.272 451.272C315.272 451.465 315.349 451.65 315.485 451.787C315.622 451.923 315.807 452 316 452Z" fill="#CBCBCB"/>
<path d="M562.674 70.3366C563.038 67.7513 562.441 65.1223 560.996 62.9476C559.552 60.773 557.36 59.2039 554.836 58.5376C552.312 57.8714 549.631 58.1542 547.302 59.3326C544.973 60.511 543.156 62.5031 542.197 64.9313L519.697 90.7298L526.299 109.171L548.927 79.0269C550.404 79.5 551.966 79.6435 553.504 79.4473C555.042 79.2512 556.518 78.7201 557.829 77.8916C559.14 77.063 560.253 75.9571 561.09 74.6518C561.927 73.3465 562.467 71.8735 562.674 70.3366Z" fill="#FFB7B7"/>
<path d="M469.408 170.718L544.096 90.9969L534.022 74.9781L440.344 154.216L469.408 170.718Z" fill="#3F3D56"/>
<path d="M452.739 122.28C467.208 122.28 478.937 110.549 478.937 96.0773C478.937 81.6058 467.208 69.8744 452.739 69.8744C438.269 69.8744 426.54 81.6058 426.54 96.0773C426.54 110.549 438.269 122.28 452.739 122.28Z" fill="#2F2E41"/>
<path d="M454.844 81.275C460.482 75.5573 467.304 71.145 474.831 68.3488C479.662 66.5587 484.92 65.4527 489.971 66.4693C495.022 67.4859 499.799 70.9806 501.208 75.9371C502.36 79.9901 501.171 84.3539 499.382 88.1692C497.594 91.9844 495.207 95.5224 493.761 99.48C492.285 103.518 491.841 107.861 492.47 112.114C493.098 116.367 494.779 120.396 497.359 123.835C499.939 127.274 503.337 130.014 507.244 131.806C511.151 133.599 515.444 134.387 519.733 134.099C514.771 134.764 510.196 137.097 505.345 138.338C500.494 139.58 494.769 139.496 491.164 136.02C487.35 132.342 487.274 126.363 487.458 121.068C487.732 113.196 488.006 105.324 488.281 97.4525C488.42 93.4381 488.54 89.295 487.092 85.548C485.645 81.8011 482.204 78.52 478.188 78.5542C475.144 78.58 472.45 80.4242 470.01 82.2429C467.568 84.0617 464.985 86.0022 461.953 86.2727C458.921 86.5432 455.459 84.2991 455.686 81.2632L454.844 81.275Z" fill="#2F2E41"/>
<path d="M353.233 272.017C350.718 272.716 348.034 272.468 345.689 271.32C343.345 270.171 341.503 268.203 340.513 265.787C339.523 263.372 339.453 260.677 340.316 258.213C341.18 255.749 342.918 253.688 345.199 252.42L367.833 226.738L386.976 230.875L360.051 257.251C360.713 258.653 361.06 260.184 361.066 261.734C361.073 263.285 360.739 264.818 360.089 266.226C359.439 267.634 358.488 268.882 357.304 269.883C356.119 270.883 354.73 271.612 353.233 272.017H353.233Z" fill="#FFB7B7"/>
<path d="M427.697 180.076L371.285 250.896L354.09 243.001L420.395 139.758L427.697 180.076Z" fill="#3F3D56"/>
<path d="M382.686 393.925L369.241 393.714L370.858 439.544H382.683L382.686 393.925Z" fill="#FFB7B7"/>
<path d="M385.7 435.683L362.411 435.682H362.41C358.474 435.682 354.699 437.246 351.916 440.03C349.132 442.813 347.569 446.589 347.568 450.525V451.008L385.699 451.009L385.7 435.683Z" fill="#2F2E41"/>
<path d="M471.701 381.77L457.015 391.2L486.392 426.548L496.344 420.158L471.701 381.77Z" fill="#FFB7B7"/>
<path d="M496.796 415.279L477.198 427.863L477.198 427.863C473.886 429.99 471.554 433.346 470.716 437.192C469.877 441.039 470.601 445.061 472.727 448.373L472.988 448.779L505.075 428.176L496.796 415.279Z" fill="#2F2E41"/>
<path d="M476.934 241.824C476.934 241.824 444.302 133.426 433.815 131.961C423.328 130.496 406.431 159.775 406.431 159.775C384.524 187.73 361.934 278.285 361.934 278.285C361.934 278.285 399.592 280.642 427.121 295.29C454.649 309.939 487.136 294.549 487.136 294.549L476.934 241.824Z" fill="#3F3D56"/>
<path opacity="0.1" d="M476.934 241.824C476.934 241.824 444.302 133.426 433.815 131.961C423.328 130.496 410.723 160.072 410.723 160.072C399.806 205.199 361.934 278.285 361.934 278.285C361.934 278.285 399.592 280.642 427.121 295.29C454.649 309.939 487.136 294.549 487.136 294.549L476.934 241.824Z" fill="black"/>
<path d="M450.162 209.392V263.861L456.571 342.764L488.592 402.448L473.309 413.366L429.644 356.593L412.374 300.221L385.252 425.012L364.875 423.556L379.026 250.536L405.881 201.835L450.162 209.392Z" fill="#2F2E41"/>
<path d="M417.26 156.708C407.072 166.898 416.533 177.816 416.533 177.816L404.889 204.018L450.737 216.392L466.759 144.787L455.843 133.141C434.01 132.413 433.999 131.96 433.999 131.96C430.173 135.704 417.26 156.708 417.26 156.708Z" fill="#6C63FF"/>
<path d="M468.605 137.368C466.523 135.831 464.157 134.722 461.643 134.106C459.129 133.49 456.518 133.379 453.961 133.779C451.404 134.18 448.952 135.083 446.746 136.438C444.541 137.793 442.626 139.572 441.113 141.672C429.587 157.723 418.93 183.641 433.614 215.966C457.192 267.869 477.711 294.44 486.052 294.437C486.416 294.44 486.778 294.383 487.124 294.268C492.258 292.526 499.682 283.837 501.026 276.179C501.507 273.438 501.393 269.621 498.115 266.999C488.701 259.469 471.801 236.021 466.53 205.158C463.616 188.104 469.266 172.57 474.519 162.542C476.737 158.392 477.387 153.582 476.347 148.993C475.307 144.404 472.649 140.343 468.859 137.555L468.605 137.368Z" fill="#3F3D56"/>
<path d="M454.086 119.706C463.431 114.596 466.866 102.877 461.757 93.5296C456.648 84.1824 444.931 80.7471 435.585 85.8568C426.239 90.9664 422.804 102.686 427.913 112.033C433.022 121.38 444.74 124.816 454.086 119.706Z" fill="#FFB7B7"/>
<path d="M417.713 101.323H445.561L445.847 97.3243L447.275 101.323H451.563L452.128 93.3977L454.958 101.323H463.255V100.93C463.249 95.4129 461.055 90.1231 457.154 86.2216C453.253 82.3202 447.964 80.1256 442.448 80.1193H438.521C433.005 80.1256 427.716 82.3201 423.815 86.2216C419.914 90.1231 417.72 95.4129 417.713 100.93V101.323Z" fill="#2F2E41"/>
<path d="M459.048 115.696L470.932 111.84V82.9758H448.485L449.041 83.5308C456.773 91.254 465.373 118.655 459.048 115.696Z" fill="#2F2E41"/>
</g>
<defs>
<clipPath id="clip0_1_960">
<rect width="594" height="452" fill="white"/>
</clipPath>
</defs>
</svg>
