<svg width="30" height="30" viewBox="0 0 30 30" fill="none" xmlns="http://www.w3.org/2000/svg">
<path d="M14.9992 22.8003C10.6792 22.8003 7.19922 19.3203 7.19922 15.0003C7.19922 13.0803 7.91922 11.2803 9.17922 9.84025L10.0792 10.6203C8.99922 11.8203 8.39922 13.3803 8.39922 15.0003C8.39922 18.6603 11.3392 21.6003 14.9992 21.6003C15.9592 21.6003 16.8592 21.4203 17.7592 21.0003L18.2392 22.0803C17.2192 22.5603 16.1392 22.8003 14.9992 22.8003ZM20.8192 20.2203L19.9192 19.4403C20.9992 18.2403 21.5992 16.6803 21.5992 15.0603C21.5992 11.4003 18.6592 8.46025 14.9992 8.46025C14.0392 8.46025 13.1392 8.64025 12.2392 9.06025L11.7592 7.98025C12.7792 7.50025 13.8592 7.26025 14.9992 7.26025C19.3192 7.26025 22.7992 10.7403 22.7992 15.0603C22.7992 16.9203 22.0792 18.7803 20.8192 20.2203Z" fill="#1A1A1A"/>
<path d="M10.8 14.4001H9.6V10.8001H6V9.6001H10.8V14.4001ZM24 20.4001H19.2V15.6001H20.4V19.2001H24V20.4001Z" fill="#1A1A1A"/>
</svg>
