<svg width="292" height="160" viewBox="0 0 292 160" fill="none" xmlns="http://www.w3.org/2000/svg">
<g clip-path="url(#clip0_1_1046)">
<path d="M253.475 158.951C253.503 158.867 256.209 150.46 251.42 142.958L250.931 143.273C255.567 150.535 252.951 158.685 252.924 158.767L253.475 158.951Z" fill="#E4E4E4"/>
<path d="M247.996 144.037C248.099 144.528 248.297 144.994 248.58 145.409C248.863 145.823 249.224 146.177 249.643 146.452C250.062 146.726 250.53 146.914 251.022 147.007C251.513 147.099 252.018 147.093 252.507 146.989C252.997 146.886 253.461 146.686 253.873 146.403C254.286 146.119 254.639 145.756 254.912 145.336C255.185 144.915 255.373 144.444 255.465 143.951C255.557 143.457 255.551 142.95 255.448 142.459C255.014 140.392 251.334 135.25 249.277 135.686C247.219 136.121 247.562 141.971 247.996 144.037Z" fill="#E4E4E4"/>
<path d="M248.69 153.702C250.526 155.694 253.811 155.64 253.811 155.64C253.811 155.64 254.119 152.355 252.283 150.362C250.446 148.37 247.161 148.424 247.161 148.424C247.161 148.424 246.853 151.709 248.69 153.702Z" fill="#E4E4E4"/>
<path d="M276.525 159.534C276.59 159.336 282.976 139.496 271.675 121.792L270.521 122.535C281.46 139.672 275.288 158.907 275.224 159.099L276.525 159.534Z" fill="#E4E4E4"/>
<path d="M263.594 124.338C264.086 126.68 265.484 128.729 267.481 130.035C269.477 131.341 271.909 131.797 274.24 131.304C276.572 130.81 278.613 129.406 279.914 127.402C281.215 125.397 281.67 122.956 281.179 120.614C280.155 115.738 271.473 103.601 266.617 104.63C261.76 105.658 262.569 119.462 263.594 124.338Z" fill="#E4E4E4"/>
<path d="M265.231 147.146C269.565 151.849 277.318 151.721 277.318 151.721C277.318 151.721 278.045 143.969 273.711 139.266C269.377 134.563 261.624 134.69 261.624 134.69C261.624 134.69 260.897 142.443 265.231 147.146Z" fill="#E4E4E4"/>
<path d="M168.451 158.04L164.214 156.249L161.307 134.918H122.597L119.446 156.161L115.655 158.065C115.474 158.156 115.329 158.306 115.243 158.49C115.157 158.675 115.135 158.883 115.182 159.081C115.229 159.279 115.34 159.456 115.499 159.582C115.658 159.709 115.855 159.777 116.058 159.777H168.102C168.31 159.777 168.511 159.705 168.672 159.573C168.833 159.441 168.943 159.257 168.984 159.052C169.025 158.848 168.995 158.635 168.898 158.451C168.8 158.266 168.643 158.121 168.451 158.04Z" fill="#E6E6E6"/>
<path d="M237.241 137.756H47.0883C46.0906 137.753 45.1346 137.354 44.4299 136.645C43.7252 135.935 43.3295 134.974 43.3295 133.973V107.046H241V133.973C240.999 134.974 240.604 135.935 239.899 136.645C239.194 137.354 238.238 137.753 237.241 137.756Z" fill="#CCCCCC"/>
<path d="M241.198 119.772H43.1559V4.56038C43.1573 3.35129 43.6362 2.19213 44.4876 1.33719C45.339 0.482254 46.4934 0.00135903 47.6974 3.8147e-06H236.657C237.861 0.00135824 239.015 0.482251 239.867 1.33719C240.718 2.19212 241.197 3.35129 241.198 4.56038V119.772Z" fill="#3F3D56"/>
<path d="M229.371 8.36183H54.9836C54.0554 8.363 53.1656 8.73397 52.5096 9.39332C51.8535 10.0527 51.4849 10.9465 51.4845 11.8785V107.894C51.4849 108.826 51.8535 109.72 52.5096 110.379C53.1656 111.039 54.0554 111.41 54.9836 111.411H229.371C230.299 111.409 231.189 111.038 231.845 110.379C232.501 109.719 232.87 108.826 232.87 107.894V11.8785C232.87 10.9466 232.501 10.0531 231.845 9.39384C231.189 8.7346 230.299 8.36347 229.371 8.36183Z" fill="white"/>
<path d="M85.895 8.36183V111.411H54.9835C54.0553 111.41 53.1656 111.039 52.5095 110.379C51.8535 109.72 51.4848 108.826 51.4844 107.894V11.8785C51.4848 10.9465 51.8535 10.0527 52.5095 9.39332C53.1656 8.73397 54.0553 8.363 54.9835 8.36183H85.895Z" fill="#F0F0F0"/>
<path d="M60.3935 60.4187C60.0456 60.3392 59.6845 60.3372 59.3357 60.413C58.9869 60.4887 58.6589 60.6404 58.3747 60.8572C58.0906 61.074 57.8573 61.3508 57.6912 61.6679C57.5251 61.9851 57.4303 62.335 57.4134 62.6929L49.093 65.1562L52.5374 68.0762L59.9106 65.2894C60.5113 65.278 61.087 65.0457 61.5286 64.6366C61.9702 64.2274 62.2469 63.6698 62.3065 63.0695C62.366 62.4691 62.2041 61.8676 61.8516 61.3791C61.499 60.8905 60.9802 60.5488 60.3935 60.4187H60.3935Z" fill="#FFB6B6"/>
<path d="M26.775 78.9572C25.9524 78.9561 25.1569 78.6617 24.5304 78.1264C23.9039 77.5912 23.4871 76.8499 23.3543 76.0347C23.2215 75.2195 23.3813 74.3835 23.8053 73.6756C24.2293 72.9678 24.8898 72.4342 25.6692 72.1699L42.53 66.4545L55.6823 61.6431L57.2963 67.3162L45.6856 74.9989L27.5007 78.8804C27.2621 78.9314 27.0189 78.9571 26.775 78.9572Z" fill="#6C63FF"/>
<path d="M37.3263 157.112H39.6935L40.8199 147.943H37.3257L37.3263 157.112Z" fill="#FFB6B6"/>
<path d="M36.7224 156.336L41.3845 156.336H41.3847C42.1727 156.336 42.9284 156.65 43.4856 157.21C44.0427 157.769 44.3558 158.528 44.3558 159.32V159.417L36.7225 159.417L36.7224 156.336Z" fill="#2F2E41"/>
<path d="M19.175 157.112H21.5422L22.6686 147.943H19.1747L19.175 157.112Z" fill="#FFB6B6"/>
<path d="M18.5711 156.336L23.2333 156.336H23.2335C24.0214 156.336 24.7771 156.65 25.3343 157.21C25.8915 157.769 26.2045 158.528 26.2046 159.32V159.417L18.5712 159.417L18.5711 156.336Z" fill="#2F2E41"/>
<path d="M19.1516 102.112C18.0682 104.646 17.8311 107.464 18.4757 110.145L17.7999 155.63H22.9991L25.91 130.616L30.7375 114.134L35.9512 126.932V153.605L40.9717 153.303L43.6751 124.993L40.5855 104.827L19.1516 102.112Z" fill="#2F2E41"/>
<path d="M38.1717 66.7237L33.7305 65.3663L32.5719 63.0394H26.8671L25.4272 65.5602C25.4272 65.5602 19.6342 67.6932 19.4411 77.9703C19.248 88.2474 18.4756 104.73 18.4756 104.73L41.3176 108L38.1717 66.7237Z" fill="#6C63FF"/>
<path d="M44.7294 106.159C44.8793 105.834 44.9563 105.48 44.955 105.121C44.9537 104.763 44.8742 104.409 44.7221 104.085C44.57 103.761 44.3489 103.474 44.0745 103.245C43.8001 103.016 43.479 102.85 43.1338 102.759L42.4643 94.0743L38.9039 96.8505L40.0856 104.672C39.9718 105.265 40.0783 105.878 40.3851 106.397C40.6918 106.916 41.1774 107.304 41.7498 107.487C42.3222 107.67 42.9417 107.636 43.4909 107.392C44.04 107.147 44.4807 106.708 44.7295 106.159H44.7294Z" fill="#FFB6B6"/>
<path d="M38.6548 101.683L33.5853 88.6811V70.0119C33.5853 69.1227 33.9238 68.2671 34.5315 67.6204C35.1392 66.9736 35.9701 66.5846 36.8542 66.533C37.7382 66.4814 38.6084 66.7711 39.2867 67.3428C39.9649 67.9145 40.3999 68.7249 40.5025 69.6081L42.5642 87.3581L44.5164 101.277L38.6548 101.683Z" fill="#6C63FF"/>
<path d="M30.8139 60.021C33.9624 60.021 36.5148 57.4579 36.5148 54.2962C36.5148 51.1344 33.9624 48.5713 30.8139 48.5713C27.6653 48.5713 25.1129 51.1344 25.1129 54.2962C25.1129 57.4579 27.6653 60.021 30.8139 60.021Z" fill="#FFB9B9"/>
<path d="M31.1871 52.5559C30.9204 52.8998 30.5548 53.2102 30.496 53.642C30.4525 53.962 30.5917 54.2782 30.605 54.6009C30.606 54.9266 30.4834 55.2404 30.2621 55.4784C30.0408 55.7164 29.7374 55.8607 29.4138 55.8819C29.1884 55.5971 28.8627 55.4101 28.5039 55.3594C28.3254 55.3391 28.145 55.3769 27.9895 55.4671C27.8339 55.5574 27.7112 55.6954 27.6395 55.8609C27.4702 56.3411 27.8621 56.829 27.9251 57.3345C27.9335 57.7084 27.8732 58.0807 27.7474 58.4327C27.6029 59.0127 27.5643 59.6264 27.3109 60.1674C27.0575 60.7083 26.494 61.1737 25.9106 61.0541C25.4201 60.9536 25.0882 60.4765 24.951 59.993C24.8138 59.5095 24.82 58.9968 24.7207 58.5041C24.3981 56.903 23.0257 55.7168 22.4872 54.1753C21.7973 52.2001 22.6261 49.9409 24.0546 48.4165C24.6321 47.7487 25.386 47.2585 26.2292 47.0027C27.1194 46.7751 28.0606 46.9387 28.974 46.8414C29.9509 46.7373 30.8691 46.3386 31.8184 46.0853C32.7678 45.8319 33.8282 45.7365 34.6912 46.2079C35.2931 46.5366 35.7289 47.1034 36.2897 47.4987C36.9326 47.9484 37.7121 48.1579 38.4927 48.0908L37.5605 48.5C37.9173 48.8288 38.3483 49.0658 38.8164 49.1907C38.4354 49.4939 37.9641 49.66 37.478 49.6625C37.5794 49.8459 37.7172 50.0066 37.8828 50.1344C38.0484 50.2623 38.2384 50.3548 38.441 50.406C37.7331 50.7397 36.9816 51.0816 36.2033 51.0064C35.822 50.9695 35.4575 50.8334 35.0809 50.7634C34.2781 50.6141 33.4537 50.7688 32.6519 50.9233C32.2308 51.0044 31.714 51.0822 31.5014 51.4888C31.3243 51.8273 31.4598 52.2045 31.1871 52.5559Z" fill="#2F2E41"/>
<path d="M68.6898 69.0192C73.7127 69.0192 77.7846 64.9303 77.7846 59.8863C77.7846 54.8423 73.7127 50.7533 68.6898 50.7533C63.6668 50.7533 59.5949 54.8423 59.5949 59.8863C59.5949 64.9303 63.6668 69.0192 68.6898 69.0192Z" fill="#6C63FF"/>
<path d="M74.1465 59.8864H69.2355V54.9545H68.1439V59.8864H63.2327V60.9822H68.1439V65.9141H69.2355V60.9822H74.1465V59.8864Z" fill="white"/>
<path d="M146.138 20.4145C145.857 20.4148 145.588 20.5268 145.39 20.726C145.192 20.9251 145.08 21.1952 145.08 21.4768V39.2639C145.08 39.5456 145.192 39.8156 145.39 40.0148C145.588 40.214 145.857 40.326 146.138 40.3263H217.544C217.825 40.326 218.093 40.214 218.292 40.0148C218.49 39.8156 218.602 39.5456 218.602 39.2639V21.4768C218.602 21.1952 218.49 20.9251 218.292 20.726C218.093 20.5268 217.825 20.4148 217.544 20.4145H146.138Z" fill="white"/>
<path d="M146.138 20.4145C145.857 20.4148 145.588 20.5268 145.39 20.726C145.192 20.9251 145.08 21.1952 145.08 21.4768V39.2639C145.08 39.5456 145.192 39.8156 145.39 40.0148C145.588 40.214 145.857 40.326 146.138 40.3263H217.544C217.825 40.326 218.093 40.214 218.292 40.0148C218.49 39.8156 218.602 39.5456 218.602 39.2639V21.4768C218.602 21.1952 218.49 20.9251 218.292 20.726C218.093 20.5268 217.825 20.4148 217.544 20.4145H146.138Z" fill="#E6E6E6"/>
<path d="M146.27 39.1312H217.412V21.6097H146.27V39.1312Z" fill="white"/>
<path d="M154.358 26.6524C154.113 26.6524 153.878 26.7503 153.704 26.9246C153.53 27.0989 153.433 27.3353 153.433 27.5819C153.433 27.8284 153.53 28.0648 153.704 28.2391C153.878 28.4135 154.113 28.5114 154.358 28.5114H209.321C209.442 28.5114 209.563 28.4875 209.675 28.4408C209.787 28.3941 209.889 28.3257 209.975 28.2394C210.061 28.1531 210.13 28.0507 210.176 27.938C210.223 27.8252 210.247 27.7043 210.247 27.5823C210.247 27.4602 210.223 27.3393 210.176 27.2265C210.13 27.1137 210.062 27.0112 209.976 26.9249C209.89 26.8385 209.788 26.77 209.676 26.7233C209.563 26.6765 209.443 26.6524 209.322 26.6524H154.358Z" fill="#E4E4E4"/>
<path d="M154.359 32.2294C154.113 32.2299 153.878 32.328 153.705 32.5023C153.532 32.6765 153.435 32.9127 153.435 33.159C153.435 33.4052 153.532 33.6414 153.705 33.8156C153.878 33.9899 154.113 34.088 154.359 34.0885H209.321C209.566 34.089 209.802 33.9916 209.976 33.8177C210.15 33.6438 210.248 33.4076 210.248 33.161C210.249 32.9145 210.152 32.6779 209.979 32.5032C209.806 32.3285 209.57 32.23 209.325 32.2294H154.359Z" fill="#E4E4E4"/>
<path d="M96.4819 50.5952C96.2015 50.5955 95.9326 50.7075 95.7343 50.9067C95.5359 51.1058 95.4244 51.3759 95.4241 51.6575V69.4446C95.4244 69.7263 95.5359 69.9963 95.7342 70.1955C95.9326 70.3947 96.2015 70.5067 96.4819 70.507H167.888C168.169 70.5067 168.438 70.3947 168.636 70.1955C168.834 69.9963 168.946 69.7263 168.946 69.4446V51.6575C168.946 51.3759 168.834 51.1059 168.636 50.9067C168.438 50.7075 168.169 50.5955 167.888 50.5952H96.4819Z" fill="white"/>
<path d="M96.4819 50.5952C96.2015 50.5955 95.9326 50.7075 95.7343 50.9067C95.5359 51.1058 95.4244 51.3759 95.4241 51.6575V69.4446C95.4244 69.7263 95.5359 69.9963 95.7342 70.1955C95.9326 70.3947 96.2015 70.5067 96.4819 70.507H167.888C168.169 70.5067 168.438 70.3947 168.636 70.1955C168.834 69.9963 168.946 69.7263 168.946 69.4446V51.6575C168.946 51.3759 168.834 51.1059 168.636 50.9067C168.438 50.7075 168.169 50.5955 167.888 50.5952H96.4819Z" fill="#E6E6E6"/>
<path d="M96.6141 69.3119H167.756V51.7904H96.6141V69.3119Z" fill="white"/>
<path d="M104.703 56.8331C104.457 56.8331 104.222 56.931 104.048 57.1053C103.875 57.2796 103.777 57.5161 103.777 57.7626C103.777 58.0091 103.875 58.2455 104.048 58.4199C104.222 58.5942 104.457 58.6921 104.703 58.6921H159.665C159.787 58.6921 159.907 58.6682 160.019 58.6215C160.132 58.5748 160.234 58.5064 160.32 58.4201C160.406 58.3339 160.474 58.2314 160.52 58.1187C160.567 58.0059 160.591 57.885 160.591 57.763C160.591 57.6409 160.567 57.52 160.521 57.4072C160.474 57.2945 160.406 57.192 160.32 57.1056C160.234 57.0192 160.132 56.9507 160.02 56.904C159.908 56.8572 159.787 56.8331 159.666 56.8331H104.703Z" fill="#E4E4E4"/>
<path d="M104.703 62.4102C104.458 62.4106 104.223 62.5087 104.049 62.683C103.876 62.8573 103.779 63.0934 103.779 63.3397C103.779 63.5859 103.876 63.8221 104.049 63.9964C104.223 64.1706 104.458 64.2687 104.703 64.2692H159.665C159.911 64.2697 160.146 64.1723 160.32 63.9984C160.494 63.8245 160.592 63.5883 160.593 63.3417C160.593 63.0952 160.496 62.8586 160.323 62.6839C160.15 62.5092 159.915 62.4107 159.669 62.4102H104.703Z" fill="#E4E4E4"/>
<path d="M183.521 98.3341C183.839 98.2989 184.145 98.1941 184.419 98.0272C184.692 97.8602 184.926 97.635 185.103 97.3676C185.28 97.1002 185.397 96.797 185.445 96.4793C185.493 96.1617 185.471 95.8374 185.381 95.5292L191.709 90.99L187.938 89.5317L182.506 94.0658C182.001 94.2525 181.581 94.6189 181.327 95.0957C181.072 95.5724 181.001 96.1263 181.126 96.6525C181.251 97.1786 181.564 97.6404 182.005 97.9503C182.447 98.2602 182.986 98.3968 183.521 98.3341Z" fill="#FFB7B7"/>
<path d="M187.034 95.3445L184.935 91.7439L184.98 91.6928L193.45 82.0092L200.027 70.7467L205.738 71.4776L205.822 73.211L205.805 73.2369L196.731 86.9334L196.722 86.9416L187.034 95.3445Z" fill="#3F3D56"/>
<path d="M215.02 156.273L211.791 156.273L210.254 143.763L215.021 143.764L215.02 156.273Z" fill="#FFB7B7"/>
<path d="M215.844 159.417L205.43 159.416V159.284C205.43 158.205 205.857 157.169 206.618 156.406C207.378 155.643 208.409 155.214 209.484 155.214H209.484L215.844 155.214L215.844 159.417Z" fill="#2F2E41"/>
<path d="M187.225 156.167L184.084 155.414L185.482 142.888L190.118 144L187.225 156.167Z" fill="#FFB7B7"/>
<path d="M187.299 159.417L177.17 156.988L177.201 156.859C177.45 155.809 178.105 154.902 179.021 154.337C179.937 153.772 181.039 153.595 182.084 153.846L182.085 153.846L188.271 155.329L187.299 159.417Z" fill="#2F2E41"/>
<path d="M199.777 65.0275V59.5684C199.777 57.6283 200.544 55.7677 201.91 54.3958C203.277 53.0239 205.129 52.2532 207.061 52.2532C208.993 52.2532 210.846 53.0239 212.212 54.3958C213.579 55.7677 214.346 57.6283 214.346 59.5684V65.0275C214.346 65.288 214.243 65.5378 214.059 65.722C213.876 65.9062 213.627 66.0099 213.368 66.0102H200.755C200.496 66.0099 200.247 65.9062 200.064 65.722C199.88 65.5378 199.777 65.288 199.777 65.0275Z" fill="#2F2E41"/>
<path d="M205.264 65.9272C208.213 65.9272 210.604 63.526 210.604 60.5639C210.604 57.6019 208.213 55.2007 205.264 55.2007C202.314 55.2007 199.923 57.6019 199.923 60.5639C199.923 63.526 202.314 65.9272 205.264 65.9272Z" fill="#FFB7B7"/>
<path d="M198.053 60.0051C198.055 58.4709 198.663 57.0001 199.743 55.9153C200.823 54.8304 202.288 54.2202 203.816 54.2185H204.903C206.431 54.2202 207.896 54.8304 208.976 55.9153C210.056 57.0001 210.664 58.4709 210.666 60.0051V60.1143H208.368L207.584 57.9106L207.427 60.1143H206.24L205.845 59.0024L205.765 60.1143H198.053V60.0051Z" fill="#2F2E41"/>
<path d="M208.379 88.8707L194.78 88.3509L194.02 79.4171C193.434 77.7819 193.424 76.3779 193.992 75.2442C194.48 74.3131 195.3 73.6013 196.288 73.2511L199.264 69.6422C199.647 69.1782 200.127 68.8055 200.671 68.5509C201.215 68.2964 201.809 68.1663 202.409 68.1702L210.139 68.2233C210.326 68.1107 211.456 67.5339 213.686 68.5043C216.104 69.557 215.542 73.2129 215.536 73.2496L215.531 73.284L215.504 73.3065L210.361 77.6554L208.379 88.8707Z" fill="#3F3D56"/>
<path d="M194.889 87.3911L188.456 99.1677L183.579 152.746L189.09 154.435L198.843 112.524L210.162 153.246L216.767 153.412L212.269 106.418L208.339 88.2233L194.889 87.3911Z" fill="#2F2E41"/>
<path d="M153.258 78.6617C152.991 78.5751 152.701 78.5984 152.451 78.7264C152.201 78.8545 152.012 79.0768 151.925 79.3446L146.463 96.2649C146.377 96.5329 146.4 96.8243 146.528 97.0752C146.655 97.3261 146.877 97.5159 147.143 97.6031L215.07 119.715C215.337 119.801 215.627 119.778 215.877 119.65C216.127 119.522 216.316 119.3 216.402 119.032L221.865 102.112C221.951 101.844 221.928 101.552 221.8 101.301C221.673 101.05 221.451 100.861 221.185 100.773L153.258 78.6617Z" fill="white"/>
<path d="M153.258 78.6617C152.991 78.5751 152.701 78.5984 152.451 78.7264C152.201 78.8545 152.012 79.0768 151.925 79.3446L146.463 96.2649C146.377 96.5329 146.4 96.8243 146.528 97.0752C146.655 97.3261 146.877 97.5159 147.143 97.6031L215.07 119.715C215.337 119.801 215.627 119.778 215.877 119.65C216.127 119.522 216.316 119.3 216.402 119.032L221.865 102.112C221.951 101.844 221.928 101.552 221.8 101.301C221.673 101.05 221.451 100.861 221.185 100.773L153.258 78.6617Z" fill="#E6E6E6"/>
<path d="M147.636 96.5071L215.311 118.537L220.692 101.869L153.017 79.8395L147.636 96.5071Z" fill="white"/>
<path d="M159.163 87.1412C158.929 87.0653 158.675 87.0856 158.457 87.1977C158.238 87.3098 158.073 87.5045 157.997 87.7389C157.921 87.9733 157.942 88.2283 158.053 88.4479C158.165 88.6674 158.358 88.8335 158.592 88.9096L210.875 105.929C210.991 105.967 211.113 105.982 211.234 105.972C211.356 105.963 211.474 105.929 211.582 105.874C211.691 105.818 211.787 105.742 211.866 105.649C211.945 105.556 212.005 105.449 212.043 105.332C212.08 105.216 212.095 105.094 212.085 104.972C212.075 104.85 212.042 104.732 211.987 104.623C211.931 104.514 211.855 104.417 211.763 104.338C211.67 104.259 211.563 104.199 211.447 104.161L211.446 104.161L159.163 87.1412Z" fill="#6C63FF"/>
<path d="M157.45 92.4465C157.217 92.371 156.963 92.3917 156.745 92.5038C156.526 92.6159 156.361 92.8105 156.286 93.0446C156.21 93.2788 156.23 93.5336 156.341 93.753C156.453 93.9724 156.646 94.1385 156.879 94.2149L209.163 111.235C209.396 111.311 209.65 111.291 209.869 111.18C210.088 111.068 210.254 110.874 210.33 110.64C210.406 110.405 210.387 110.15 210.276 109.93C210.165 109.71 209.971 109.544 209.738 109.467L209.734 109.466L157.45 92.4465Z" fill="#6C63FF"/>
<path d="M212.074 106.456C212.312 106.242 212.5 105.977 212.626 105.682C212.751 105.386 212.81 105.067 212.799 104.745C212.788 104.424 212.707 104.11 212.562 103.823C212.417 103.537 212.211 103.286 211.959 103.089L214.47 95.6974L210.558 96.7179L208.773 103.58C208.471 104.028 208.342 104.571 208.412 105.107C208.481 105.644 208.745 106.136 209.151 106.49C209.558 106.845 210.08 107.037 210.619 107.031C211.158 107.025 211.675 106.82 212.074 106.456V106.456Z" fill="#FFB7B7"/>
<path d="M213.195 101.971L209.401 100.272L210.676 87.3791L209.489 74.3778L214.555 71.6315L215.629 72.9912L215.63 73.0221L216.199 89.4624L216.196 89.4749L213.195 101.971Z" fill="#3F3D56"/>
<path d="M291.557 160H93.0939C92.9935 160.002 92.8953 159.971 92.8144 159.911C92.7336 159.851 92.6747 159.766 92.647 159.669C92.6297 159.603 92.6277 159.534 92.6411 159.468C92.6545 159.401 92.6831 159.338 92.7245 159.284C92.7659 159.23 92.8192 159.186 92.8801 159.156C92.941 159.126 93.008 159.11 93.076 159.11H291.521C291.626 159.106 291.73 159.139 291.816 159.202C291.901 159.265 291.962 159.355 291.99 159.458C292.004 159.523 292.004 159.591 291.989 159.656C291.974 159.72 291.944 159.781 291.903 159.833C291.861 159.885 291.809 159.927 291.749 159.956C291.689 159.985 291.623 160 291.557 160Z" fill="#CCCCCC"/>
<path d="M66.799 160H0.461172C0.360794 160.002 0.26253 159.971 0.181692 159.911C0.100853 159.851 0.0419784 159.766 0.0142426 159.669C-0.00307313 159.603 -0.00508858 159.534 0.00834952 159.468C0.0217876 159.401 0.05032 159.338 0.0917549 159.284C0.13319 159.23 0.186421 159.186 0.247351 159.156C0.308282 159.126 0.375288 159.11 0.443213 159.11H66.7627C66.8686 159.106 66.9726 159.139 67.0578 159.202C67.1431 159.265 67.2045 159.355 67.232 159.458C67.2464 159.523 67.246 159.591 67.231 159.656C67.2159 159.72 67.1865 159.781 67.1449 159.833C67.1034 159.885 67.0507 159.927 66.9909 159.956C66.931 159.985 66.8654 160 66.799 160Z" fill="#CCCCCC"/>
</g>
<defs>
<clipPath id="clip0_1_1046">
<rect width="292" height="160" fill="white"/>
</clipPath>
</defs>
</svg>
