<svg width="221" height="143" viewBox="0 0 221 143" fill="none" xmlns="http://www.w3.org/2000/svg">
<g filter="url(#filter0_d_1_585)">
<rect x="3" y="3" width="210" height="132" rx="6.36364" fill="white"/>
</g>
<g clip-path="url(#clip0_1_585)">
<path d="M110.265 45.9209C110.174 52.8579 116.719 56.7293 121.651 59.0309C126.717 61.3926 128.419 62.9069 128.4 65.0186C128.361 68.2509 124.358 69.6772 120.611 69.7328C114.075 69.83 110.275 68.0425 107.253 66.6903L104.899 77.244C107.93 78.5823 113.543 79.7493 119.364 79.8003C133.026 79.8003 141.965 73.3402 142.014 63.3237C142.067 50.612 123.657 49.9081 123.783 44.226C123.826 42.5033 125.543 40.6649 129.304 40.1972C131.165 39.961 136.304 39.7804 142.13 42.3505L144.417 32.1395C141.284 31.0466 137.257 30 132.243 30C119.383 30 110.338 36.548 110.265 45.9209ZM166.39 30.8799C163.895 30.8799 161.792 32.2738 160.854 34.4132L141.337 79.0501H154.99L157.707 71.8583H174.391L175.967 79.0501H188L177.499 30.8799H166.39ZM168.299 43.8926L172.239 61.9807H161.449L168.299 43.8926ZM93.7119 30.8799L82.9502 79.0501H95.9599L106.717 30.8799H93.7119ZM74.4656 30.8799L60.924 63.6663L55.4465 35.7886C54.8035 32.6766 52.2653 30.8799 49.4468 30.8799H27.3094L27 32.2784C31.5445 33.2231 36.7078 34.7466 39.8357 36.3767C41.7502 37.3723 42.2965 38.2429 42.925 40.6093L53.2999 79.0501H67.0494L88.128 30.8799H74.4656Z" fill="url(#paint0_linear_1_585)"/>
</g>
<path d="M80.2871 115.835H81.5996C81.5312 116.464 81.3512 117.027 81.0596 117.523C80.7679 118.02 80.3555 118.414 79.8223 118.706C79.2891 118.993 78.6237 119.137 77.8262 119.137C77.2428 119.137 76.7119 119.027 76.2334 118.809C75.7594 118.59 75.3516 118.28 75.0098 117.879C74.668 117.473 74.4036 116.988 74.2168 116.423C74.0345 115.853 73.9434 115.22 73.9434 114.522V113.531C73.9434 112.834 74.0345 112.203 74.2168 111.638C74.4036 111.068 74.6702 110.58 75.0166 110.175C75.3675 109.769 75.7891 109.457 76.2812 109.238C76.7734 109.02 77.3271 108.91 77.9424 108.91C78.6943 108.91 79.3301 109.051 79.8496 109.334C80.3691 109.617 80.7725 110.008 81.0596 110.51C81.3512 111.007 81.5312 111.583 81.5996 112.239H80.2871C80.2233 111.774 80.1048 111.376 79.9316 111.043C79.7585 110.706 79.5124 110.446 79.1934 110.264C78.8743 110.081 78.4574 109.99 77.9424 109.99C77.5003 109.99 77.1107 110.075 76.7734 110.243C76.4408 110.412 76.1605 110.651 75.9326 110.961C75.7093 111.271 75.5407 111.642 75.4268 112.075C75.3128 112.508 75.2559 112.989 75.2559 113.518V114.522C75.2559 115.01 75.306 115.468 75.4062 115.896C75.5111 116.325 75.6683 116.701 75.8779 117.024C76.0876 117.348 76.3542 117.603 76.6777 117.79C77.0013 117.972 77.3841 118.063 77.8262 118.063C78.3867 118.063 78.8333 117.975 79.166 117.797C79.4987 117.619 79.7493 117.364 79.918 117.031C80.0911 116.699 80.2142 116.3 80.2871 115.835ZM84.4707 112.766V119H83.2061V111.604H84.4365L84.4707 112.766ZM86.7812 111.562L86.7744 112.738C86.6696 112.715 86.5693 112.702 86.4736 112.697C86.3825 112.688 86.2777 112.684 86.1592 112.684C85.8675 112.684 85.61 112.729 85.3867 112.82C85.1634 112.911 84.9743 113.039 84.8193 113.203C84.6644 113.367 84.5413 113.563 84.4502 113.791C84.3636 114.014 84.3066 114.26 84.2793 114.529L83.9238 114.734C83.9238 114.288 83.9671 113.868 84.0537 113.477C84.1449 113.085 84.2839 112.738 84.4707 112.438C84.6576 112.132 84.8945 111.895 85.1816 111.727C85.4733 111.553 85.8197 111.467 86.2207 111.467C86.3118 111.467 86.4167 111.478 86.5352 111.501C86.6536 111.519 86.7357 111.54 86.7812 111.562ZM90.8828 119.137C90.3678 119.137 89.9007 119.05 89.4814 118.877C89.0667 118.699 88.709 118.451 88.4082 118.132C88.112 117.813 87.8841 117.435 87.7246 116.997C87.5651 116.56 87.4854 116.081 87.4854 115.562V115.274C87.4854 114.673 87.5742 114.137 87.752 113.668C87.9297 113.194 88.1712 112.793 88.4766 112.465C88.7819 112.137 89.1283 111.888 89.5156 111.72C89.903 111.551 90.304 111.467 90.7188 111.467C91.2474 111.467 91.7031 111.558 92.0859 111.74C92.4733 111.923 92.79 112.178 93.0361 112.506C93.2822 112.829 93.4645 113.212 93.583 113.654C93.7015 114.092 93.7607 114.57 93.7607 115.09V115.657H88.2373V114.625H92.4961V114.529C92.4779 114.201 92.4095 113.882 92.291 113.572C92.1771 113.262 91.9948 113.007 91.7441 112.807C91.4935 112.606 91.1517 112.506 90.7188 112.506C90.4316 112.506 90.1673 112.567 89.9258 112.69C89.6842 112.809 89.4769 112.987 89.3037 113.224C89.1305 113.461 88.9961 113.75 88.9004 114.092C88.8047 114.434 88.7568 114.828 88.7568 115.274V115.562C88.7568 115.912 88.8047 116.243 88.9004 116.553C89.0007 116.858 89.1442 117.127 89.3311 117.359C89.5225 117.592 89.7526 117.774 90.0215 117.906C90.2949 118.038 90.6048 118.104 90.9512 118.104C91.3978 118.104 91.776 118.013 92.0859 117.831C92.3958 117.649 92.667 117.405 92.8994 117.1L93.665 117.708C93.5055 117.95 93.3027 118.18 93.0566 118.398C92.8105 118.617 92.5075 118.795 92.1475 118.932C91.792 119.068 91.3704 119.137 90.8828 119.137ZM99.8994 117.564V108.5H101.171V119H100.009L99.8994 117.564ZM94.9229 115.384V115.24C94.9229 114.675 94.9912 114.162 95.1279 113.702C95.2692 113.237 95.4674 112.839 95.7227 112.506C95.9824 112.173 96.29 111.918 96.6455 111.74C97.0055 111.558 97.4066 111.467 97.8486 111.467C98.3135 111.467 98.7191 111.549 99.0654 111.713C99.4163 111.872 99.7126 112.107 99.9541 112.417C100.2 112.722 100.394 113.091 100.535 113.524C100.676 113.957 100.774 114.447 100.829 114.994V115.623C100.779 116.165 100.681 116.653 100.535 117.086C100.394 117.519 100.2 117.888 99.9541 118.193C99.7126 118.499 99.4163 118.733 99.0654 118.897C98.7145 119.057 98.3044 119.137 97.835 119.137C97.402 119.137 97.0055 119.043 96.6455 118.856C96.29 118.67 95.9824 118.408 95.7227 118.07C95.4674 117.733 95.2692 117.337 95.1279 116.881C94.9912 116.421 94.9229 115.922 94.9229 115.384ZM96.1943 115.24V115.384C96.1943 115.753 96.2308 116.099 96.3037 116.423C96.3812 116.746 96.4997 117.031 96.6592 117.277C96.8187 117.523 97.0215 117.717 97.2676 117.858C97.5137 117.995 97.8076 118.063 98.1494 118.063C98.5687 118.063 98.9128 117.975 99.1816 117.797C99.4551 117.619 99.6738 117.384 99.8379 117.093C100.002 116.801 100.13 116.484 100.221 116.143V114.495C100.166 114.244 100.086 114.003 99.9814 113.771C99.8812 113.534 99.749 113.324 99.585 113.142C99.4255 112.955 99.2272 112.807 98.9902 112.697C98.7578 112.588 98.4821 112.533 98.1631 112.533C97.8167 112.533 97.5182 112.606 97.2676 112.752C97.0215 112.893 96.8187 113.089 96.6592 113.34C96.4997 113.586 96.3812 113.873 96.3037 114.201C96.2308 114.525 96.1943 114.871 96.1943 115.24ZM104.514 111.604V119H103.242V111.604H104.514ZM103.146 109.642C103.146 109.437 103.208 109.263 103.331 109.122C103.459 108.981 103.646 108.91 103.892 108.91C104.133 108.91 104.318 108.981 104.445 109.122C104.577 109.263 104.644 109.437 104.644 109.642C104.644 109.838 104.577 110.006 104.445 110.147C104.318 110.284 104.133 110.353 103.892 110.353C103.646 110.353 103.459 110.284 103.331 110.147C103.208 110.006 103.146 109.838 103.146 109.642ZM109.641 111.604V112.574H105.642V111.604H109.641ZM106.995 109.806H108.26V117.168C108.26 117.419 108.299 117.608 108.376 117.735C108.453 117.863 108.554 117.947 108.677 117.988C108.8 118.029 108.932 118.05 109.073 118.05C109.178 118.05 109.287 118.041 109.401 118.022C109.52 118 109.609 117.981 109.668 117.968L109.675 119C109.575 119.032 109.442 119.062 109.278 119.089C109.119 119.121 108.925 119.137 108.697 119.137C108.387 119.137 108.103 119.075 107.843 118.952C107.583 118.829 107.376 118.624 107.221 118.337C107.07 118.045 106.995 117.653 106.995 117.161V109.806ZM120.797 115.835H122.109C122.041 116.464 121.861 117.027 121.569 117.523C121.278 118.02 120.865 118.414 120.332 118.706C119.799 118.993 119.133 119.137 118.336 119.137C117.753 119.137 117.222 119.027 116.743 118.809C116.269 118.59 115.861 118.28 115.52 117.879C115.178 117.473 114.913 116.988 114.727 116.423C114.544 115.853 114.453 115.22 114.453 114.522V113.531C114.453 112.834 114.544 112.203 114.727 111.638C114.913 111.068 115.18 110.58 115.526 110.175C115.877 109.769 116.299 109.457 116.791 109.238C117.283 109.02 117.837 108.91 118.452 108.91C119.204 108.91 119.84 109.051 120.359 109.334C120.879 109.617 121.282 110.008 121.569 110.51C121.861 111.007 122.041 111.583 122.109 112.239H120.797C120.733 111.774 120.615 111.376 120.441 111.043C120.268 110.706 120.022 110.446 119.703 110.264C119.384 110.081 118.967 109.99 118.452 109.99C118.01 109.99 117.62 110.075 117.283 110.243C116.951 110.412 116.67 110.651 116.442 110.961C116.219 111.271 116.05 111.642 115.937 112.075C115.823 112.508 115.766 112.989 115.766 113.518V114.522C115.766 115.01 115.816 115.468 115.916 115.896C116.021 116.325 116.178 116.701 116.388 117.024C116.597 117.348 116.864 117.603 117.188 117.79C117.511 117.972 117.894 118.063 118.336 118.063C118.896 118.063 119.343 117.975 119.676 117.797C120.008 117.619 120.259 117.364 120.428 117.031C120.601 116.699 120.724 116.3 120.797 115.835ZM128.077 117.735V113.928C128.077 113.636 128.018 113.383 127.899 113.169C127.785 112.95 127.612 112.782 127.38 112.663C127.147 112.545 126.86 112.485 126.519 112.485C126.2 112.485 125.919 112.54 125.678 112.649C125.441 112.759 125.254 112.902 125.117 113.08C124.985 113.258 124.919 113.449 124.919 113.654H123.654C123.654 113.39 123.723 113.128 123.859 112.868C123.996 112.608 124.192 112.374 124.447 112.164C124.707 111.95 125.017 111.781 125.377 111.658C125.742 111.531 126.147 111.467 126.594 111.467C127.132 111.467 127.605 111.558 128.016 111.74C128.43 111.923 128.754 112.198 128.986 112.567C129.223 112.932 129.342 113.39 129.342 113.941V117.387C129.342 117.633 129.362 117.895 129.403 118.173C129.449 118.451 129.515 118.69 129.602 118.891V119H128.282C128.218 118.854 128.168 118.66 128.132 118.419C128.095 118.173 128.077 117.945 128.077 117.735ZM128.296 114.516L128.31 115.404H127.031C126.671 115.404 126.35 115.434 126.067 115.493C125.785 115.548 125.548 115.632 125.356 115.746C125.165 115.86 125.019 116.004 124.919 116.177C124.819 116.345 124.769 116.544 124.769 116.771C124.769 117.004 124.821 117.216 124.926 117.407C125.031 117.599 125.188 117.751 125.397 117.865C125.612 117.975 125.874 118.029 126.184 118.029C126.571 118.029 126.913 117.947 127.209 117.783C127.505 117.619 127.74 117.419 127.913 117.182C128.091 116.945 128.187 116.715 128.2 116.491L128.74 117.1C128.708 117.291 128.622 117.503 128.48 117.735C128.339 117.968 128.15 118.191 127.913 118.405C127.681 118.615 127.403 118.79 127.079 118.932C126.76 119.068 126.4 119.137 125.999 119.137C125.498 119.137 125.058 119.039 124.68 118.843C124.306 118.647 124.014 118.385 123.805 118.057C123.6 117.724 123.497 117.353 123.497 116.942C123.497 116.546 123.575 116.197 123.729 115.896C123.884 115.591 124.108 115.338 124.399 115.138C124.691 114.933 125.042 114.778 125.452 114.673C125.862 114.568 126.32 114.516 126.826 114.516H128.296ZM132.596 112.766V119H131.331V111.604H132.562L132.596 112.766ZM134.906 111.562L134.899 112.738C134.795 112.715 134.694 112.702 134.599 112.697C134.507 112.688 134.403 112.684 134.284 112.684C133.993 112.684 133.735 112.729 133.512 112.82C133.288 112.911 133.099 113.039 132.944 113.203C132.789 113.367 132.666 113.563 132.575 113.791C132.489 114.014 132.432 114.26 132.404 114.529L132.049 114.734C132.049 114.288 132.092 113.868 132.179 113.477C132.27 113.085 132.409 112.738 132.596 112.438C132.783 112.132 133.02 111.895 133.307 111.727C133.598 111.553 133.945 111.467 134.346 111.467C134.437 111.467 134.542 111.478 134.66 111.501C134.779 111.519 134.861 111.54 134.906 111.562ZM140.601 117.564V108.5H141.872V119H140.71L140.601 117.564ZM135.624 115.384V115.24C135.624 114.675 135.692 114.162 135.829 113.702C135.97 113.237 136.169 112.839 136.424 112.506C136.684 112.173 136.991 111.918 137.347 111.74C137.707 111.558 138.108 111.467 138.55 111.467C139.015 111.467 139.42 111.549 139.767 111.713C140.118 111.872 140.414 112.107 140.655 112.417C140.901 112.722 141.095 113.091 141.236 113.524C141.378 113.957 141.476 114.447 141.53 114.994V115.623C141.48 116.165 141.382 116.653 141.236 117.086C141.095 117.519 140.901 117.888 140.655 118.193C140.414 118.499 140.118 118.733 139.767 118.897C139.416 119.057 139.006 119.137 138.536 119.137C138.103 119.137 137.707 119.043 137.347 118.856C136.991 118.67 136.684 118.408 136.424 118.07C136.169 117.733 135.97 117.337 135.829 116.881C135.692 116.421 135.624 115.922 135.624 115.384ZM136.896 115.24V115.384C136.896 115.753 136.932 116.099 137.005 116.423C137.082 116.746 137.201 117.031 137.36 117.277C137.52 117.523 137.723 117.717 137.969 117.858C138.215 117.995 138.509 118.063 138.851 118.063C139.27 118.063 139.614 117.975 139.883 117.797C140.156 117.619 140.375 117.384 140.539 117.093C140.703 116.801 140.831 116.484 140.922 116.143V114.495C140.867 114.244 140.787 114.003 140.683 113.771C140.582 113.534 140.45 113.324 140.286 113.142C140.127 112.955 139.928 112.807 139.691 112.697C139.459 112.588 139.183 112.533 138.864 112.533C138.518 112.533 138.219 112.606 137.969 112.752C137.723 112.893 137.52 113.089 137.36 113.34C137.201 113.586 137.082 113.873 137.005 114.201C136.932 114.525 136.896 114.871 136.896 115.24Z" fill="#1A1A1A"/>
<defs>
<filter id="filter0_d_1_585" x="0.454545" y="0.454545" width="220.182" height="142.182" filterUnits="userSpaceOnUse" color-interpolation-filters="sRGB">
<feFlood flood-opacity="0" result="BackgroundImageFix"/>
<feColorMatrix in="SourceAlpha" type="matrix" values="0 0 0 0 0 0 0 0 0 0 0 0 0 0 0 0 0 0 127 0" result="hardAlpha"/>
<feOffset dx="2.54545" dy="2.54545"/>
<feGaussianBlur stdDeviation="2.54545"/>
<feComposite in2="hardAlpha" operator="out"/>
<feColorMatrix type="matrix" values="0 0 0 0 0 0 0 0 0 0 0 0 0 0 0 0 0 0 0.25 0"/>
<feBlend mode="normal" in2="BackgroundImageFix" result="effect1_dropShadow_1_585"/>
<feBlend mode="normal" in="SourceGraphic" in2="effect1_dropShadow_1_585" result="shape"/>
</filter>
<linearGradient id="paint0_linear_1_585" x1="101.018" y1="80.7993" x2="102.399" y2="29.6503" gradientUnits="userSpaceOnUse">
<stop stop-color="#222357"/>
<stop offset="1" stop-color="#254AA5"/>
</linearGradient>
<clipPath id="clip0_1_585">
<rect width="161" height="50" fill="white" transform="translate(27 30)"/>
</clipPath>
</defs>
</svg>
